<?xml version="1.0" encoding="utf-8"?>
<!-- Generator: Adobe Illustrator 25.0.0, SVG Export Plug-In . SVG Version: 6.00 Build 0)  -->
<svg version="1.1" id="Layer_1" xmlns="http://www.w3.org/2000/svg" xmlns:xlink="http://www.w3.org/1999/xlink" x="0px" y="0px"
	 viewBox="0 0 1125 2436" style="enable-background:new 0 0 1125 2436;" xml:space="preserve">
<style type="text/css">
	.st0{fill:url(#Subtraction_11_1_);}
</style>
<linearGradient id="Subtraction_11_1_" gradientUnits="userSpaceOnUse" x1="-1.4247" y1="2439.9724" x2="5.5571" y2="2439.9788" gradientTransform="matrix(360 0 0 -176 256.501 429735)">
	<stop  offset="0" style="stop-color:#5068A8"/>
	<stop  offset="1" style="stop-color:#67C9E6"/>
</linearGradient>
<path id="Subtraction_11" class="st0" d="M1125,599h-2.16c-10.58-52.11-58.3-89.94-113.47-89.94c-42.02,0-80.79,22.03-101.18,57.49
	c-15.65-8.5-32.9-12.92-50.38-12.9c-7.86,0-15.71,0.88-23.4,2.63c-19.56-37.14-56.04-59.85-95.35-59.39
	c-44.35,0-84.82,28.76-100.69,71.57c-11.97-9.75-26.55-14.95-41.49-14.82c-16.35-0.23-32.21,6.04-44.62,17.64
	c-21.8-37.8-73.58-62.22-131.93-62.22c-64.36,0-120.86,30.29-137.41,73.68c-24.09-19.05-53.13-29.24-82.91-29.09
	c-11-0.01-21.97,1.36-32.68,4.08c-16.16-30.35-46.03-48.93-78.25-48.67c-48.24,0-87.34,39.5-89.01,89.94H0V0h1125V599z"/>
</svg>
